<?xml version="1.0" encoding="UTF-8" standalone="no"?>
<!-- Created with Inkscape (http://www.inkscape.org/) -->

<svg
   version="1.1"
   id="svg1"
   width="2905.3333"
   height="1341.3333"
   viewBox="0 0 2905.3333 1341.3333"
   xmlns="http://www.w3.org/2000/svg"
   xmlns:svg="http://www.w3.org/2000/svg">
  <defs
     id="defs1" />
  <g
     id="g1">
    <path
       style="fill:#000000"
       d="m 2369.1368,1158.6233 c -89.9246,0.4286 -157.4643,-78.8002 -193.6841,-153.3943 -27.1853,-80.01718 -113.5181,-90.45826 -176.2458,-132.11113 -32.946,34.09447 -31.1959,151.70883 44.966,166.47963 87.5773,77.1963 -47.0962,122.2799 -115.0591,105.5229 -60.6423,0.8158 -121.4695,-49.0043 -122.6186,-107.34 -30.2123,-66.2727 -21.8823,-144.06004 -42.3768,-215.18291 -0.9207,-90.55785 -117.0121,-66.91495 -177.5438,-64.20504 -67.5511,30.67037 -183.6613,-89.70089 -204.5392,2.87115 -11.1886,70.01176 -94.0304,131.40724 -66.7975,202.76097 63.0569,29.19763 145.0104,61.11053 199.5195,104.26493 -13.4982,91.7647 -121.0333,85.0797 -192.2064,80.5227 -65.8864,5.4351 -95.5966,-59.7066 -145.7944,-86.8814 -79.4628,-38.2981 -92.0813,-135.66653 -72.1985,-213.24461 26.0006,-62.85871 -13.2526,-213.35066 -79.5685,-100.92492 -63.56197,65.3578 -134.19029,124.81854 -224.32276,149.47635 -60.39222,5.32765 -165.55455,70.19384 -54.53426,104.27628 65.98693,33.3165 -55.5524,108.3434 -97.72349,94.84 C 555.16316,1084.5095 501.35505,988.66432 529.25725,901.43366 526.66722,847.54343 595.47679,775.76399 578.81741,740.6025 471.52039,734.44466 375.02393,677.9101 287.80499,619.26378 238.04656,582.18303 176.60633,537.82796 171.93872,471.14332 c -25.47002,-33.53765 89.66604,-90.61461 133.36884,-54.12785 84.73669,37.918 135.1738,126.11489 219.6584,162.96241 81.20779,28.26842 174.87716,-12.92019 204.8582,-93.81133 48.54132,-98.88719 124.47853,-188.72438 232.17601,-224.87796 108.87573,-48.21657 225.35473,-99.15135 348.33333,-86.75649 134.9955,3.95825 266.6705,40.40089 402.5283,28.59616 109.9692,9.58781 215.8526,-50.43584 325.1383,-17.21505 90.2514,11.38069 196.0448,19.29537 274.914,-30.17988 61.2965,-43.48995 174.6653,28.4584 146.1653,39.98303 81.5373,8.54955 135.9387,102.16527 156.3965,167.10055 57.0438,67.64769 27.7737,153.72197 -33.9223,206.73852 -56.9029,-26.68187 -132.6477,65.49074 -179.6906,-13.24578 -11.6171,-20.20501 -79.4386,-57.79528 -130.6499,-42.90756 -17.4756,52.46053 -42.8377,116.34915 -64.5157,172.52834 -16.6907,61.09914 82.6244,92.99731 103.9694,150.48566 28.8638,33.72518 75.0373,75.26559 106.603,120.186 42.3571,54.45411 61.9744,152.80521 -10.603,192.07191 -11.3963,6.8277 -24.7446,8.1411 -37.53,9.9493 z m -298.8927,-71.6092 c -2.5668,0.5782 1.9099,5.8446 0,0 z m 263.0892,-225.74994 c -3.1648,-6.99599 -1.1538,7.0428 0,0 z m -75.2284,-87.03174 c -6.6681,-6.10729 6.9343,9.58052 0,0 z M 1479.6388,191.79198 c -5.2793,-2.80197 -1.2462,3.00449 0,0 z M 698.66665,956.05223 c 3.41042,-5.43888 5.39717,-0.009 0,0 z M 2312.6666,837.93083 c 1.6125,-4.87486 3.2884,4.74969 0,0 z"
       id="path1" />
  </g>
</svg>
